<svg width="24" height="24" viewBox="0 0 24 24" fill="none" xmlns="http://www.w3.org/2000/svg">
<g clip-path="url(#clip0_1037_10287)">
<path d="M11.3313 20.4468C10.7597 20.4468 10.1758 20.4406 9.57902 20.4297C7.21397 20.3839 5.52752 19.1507 4.94874 17.0451C4.76815 16.3883 4.71259 15.7069 4.65857 15.0478C4.63336 14.7532 4.60918 14.4591 4.5742 14.1673C4.55105 13.9725 4.70281 13.7976 4.91478 13.7758C5.12983 13.755 5.31761 13.894 5.34076 14.0888C5.37781 14.3891 5.40301 14.6912 5.42822 14.9939C5.48224 15.653 5.5337 16.2739 5.6973 16.8715C6.19171 18.6707 7.57462 19.6817 9.59497 19.7205C12.8367 19.7833 15.6766 19.6751 18.2752 19.3947C20.0002 19.2074 21.3466 17.3789 21.3425 15.2312C21.3338 11.4201 21.166 7.5484 21.0102 4.21861C20.9829 3.64031 20.6202 3.15753 20.0152 2.89321C19.3201 2.59059 18.5052 2.6653 17.8883 3.0885C17.5966 3.28946 17.3656 3.60248 17.1223 3.93395C17.0009 4.09992 16.8774 4.26542 16.7472 4.41909C16.6165 4.57324 16.3752 4.60256 16.2055 4.48151C16.0378 4.36141 16.0064 4.13775 16.1381 3.9836C16.2579 3.84127 16.3701 3.68854 16.4828 3.53676C16.7513 3.17077 17.0297 2.79249 17.4274 2.52013C18.2747 1.939 19.3927 1.83734 20.3465 2.25297C21.2057 2.62841 21.7412 3.3514 21.7803 4.18882C21.9383 7.52571 22.106 11.4064 22.1137 15.2312C22.1189 17.7326 20.472 19.8713 18.3658 20.0997C16.2116 20.3319 13.8965 20.4468 11.3313 20.4468Z" stroke="black"/>
<path d="M22.6141 14.4827C22.612 14.4827 22.609 14.4827 22.6069 14.4827L2.37873 14.1678C2.16574 14.1645 1.99596 14.0027 2.00007 13.807C2.00316 13.6112 2.17963 13.468 2.39262 13.4585L22.6203 13.7734C22.8333 13.7767 23.003 13.9389 23 14.1347C22.9964 14.3281 22.8245 14.4827 22.6141 14.4827Z" stroke="black"/>
<path d="M17.813 8.49595C17.7559 8.49595 17.6972 8.4846 17.6422 8.45907C17.4513 8.37207 17.3741 8.15929 17.4683 7.98386C18.4463 6.16529 17.7116 5.3884 17.0716 4.96142C16.2768 4.43088 14.9793 4.74674 13.9807 5.71041C13.8649 5.82153 13.7625 5.95629 13.654 6.09814C13.601 6.16718 13.5485 6.23669 13.4935 6.3043C13.3664 6.46129 13.1246 6.49439 12.9527 6.37665C12.7819 6.25938 12.7475 6.03762 12.875 5.88063C12.9255 5.81822 12.9728 5.75438 13.0212 5.69149C13.1415 5.53356 13.2671 5.37043 13.4219 5.22101C14.6891 3.99681 16.4152 3.64737 17.5239 4.38738C18.862 5.28012 19.075 6.59558 18.1577 8.2983C18.0923 8.42361 17.956 8.49595 17.813 8.49595Z" stroke="black"/>
<path d="M18.6701 9.12587C18.6058 9.12587 18.5394 9.11121 18.4792 9.07906L18.0995 8.87715C17.8315 8.73293 17.5619 8.58966 17.2877 8.4549C15.9089 7.77731 14.529 7.10445 13.1477 6.43111L11.8049 5.77527C11.6171 5.68401 11.5456 5.46933 11.6444 5.29533C11.7447 5.12321 11.9778 5.05749 12.1661 5.1478L13.5094 5.80364C14.8918 6.47745 16.2716 7.15173 17.6514 7.82885C17.9344 7.96692 18.2101 8.11445 18.4874 8.26292L18.8625 8.46199C19.0467 8.5594 19.111 8.77596 19.006 8.94524C18.9345 9.06156 18.8049 9.12587 18.6701 9.12587Z" stroke="black"/>
<path d="M20.3854 22.0454C20.2439 22.0454 20.1071 21.9735 20.0397 21.8492L19.0107 19.9583C18.9145 19.7833 18.9927 19.5705 19.1836 19.4826C19.3745 19.3946 19.6065 19.4665 19.7011 19.6415L20.7301 21.5324C20.8258 21.7073 20.7481 21.9206 20.5572 22.0081C20.5022 22.0331 20.443 22.0454 20.3854 22.0454Z" stroke="black"/>
<path d="M5.81323 21.8875C5.73503 21.8875 5.65529 21.8653 5.58789 21.8195C5.41503 21.7046 5.37696 21.4823 5.50249 21.3234L6.87408 19.5914C6.99807 19.433 7.23987 19.3975 7.41274 19.5129C7.5856 19.6273 7.62367 19.8496 7.49814 20.008L6.12655 21.7414C6.0504 21.837 5.93311 21.8875 5.81323 21.8875Z" stroke="black"/>
</g>
<defs>
<clipPath id="clip0_1037_10287">
<rect width="24" height="24" fill="white"/>
</clipPath>
</defs>
</svg>
