<svg width="24" height="24" viewBox="0 0 24 24" fill="none" xmlns="http://www.w3.org/2000/svg">
<g clip-path="url(#clip0_1037_10211)">
<g clip-path="url(#clip1_1037_10211)">
<path d="M18.8437 7.87518C18.7063 9.78159 17.2921 11.2502 15.7499 11.2502C14.2077 11.2502 12.7912 9.78206 12.6562 7.87518C12.5156 5.8919 13.8923 4.50018 15.7499 4.50018C17.6076 4.50018 18.9843 5.92799 18.8437 7.87518Z" stroke="black" stroke-width="1.5" stroke-linecap="round" stroke-linejoin="round"/>
<path d="M15.7501 14.2499C12.6952 14.2499 9.75758 15.7673 9.02165 18.7223C8.92415 19.1132 9.1693 19.4999 9.57102 19.4999H21.9296C22.3313 19.4999 22.5751 19.1132 22.479 18.7223C21.743 15.7199 18.8054 14.2499 15.7501 14.2499Z" stroke="black" stroke-width="1.5" stroke-miterlimit="10"/>
<path d="M9.37494 8.71624C9.26525 10.2387 8.12244 11.4378 6.89056 11.4378C5.65869 11.4378 4.514 10.2392 4.40619 8.71624C4.29416 7.13234 5.4065 6.00031 6.89056 6.00031C8.37463 6.00031 9.48697 7.1614 9.37494 8.71624Z" stroke="black" stroke-width="1.5" stroke-linecap="round" stroke-linejoin="round"/>
<path d="M9.65618 14.3442C8.81008 13.9566 7.87821 13.8075 6.89055 13.8075C4.45306 13.8075 2.10462 15.0192 1.51634 17.3794C1.43899 17.6916 1.63493 18.0005 1.95556 18.0005H7.21868" stroke="black" stroke-width="1.5" stroke-miterlimit="10" stroke-linecap="round"/>
</g>
</g>
<defs>
<clipPath id="clip0_1037_10211">
<rect width="24" height="24" fill="white"/>
</clipPath>
<clipPath id="clip1_1037_10211">
<rect width="24" height="24" fill="white"/>
</clipPath>
</defs>
</svg>
