<svg width="24" height="24" viewBox="0 0 24 24" fill="none" xmlns="http://www.w3.org/2000/svg">
<g clip-path="url(#clip0_1037_10215)">
<path d="M19.5 3.74908H4.49997C3.25733 3.74908 2.24997 4.75644 2.24997 5.99908V19.4991C2.24997 20.7417 3.25733 21.7491 4.49997 21.7491H19.5C20.7426 21.7491 21.75 20.7417 21.75 19.4991V5.99908C21.75 4.75644 20.7426 3.74908 19.5 3.74908Z" stroke="black" stroke-width="1.5" stroke-linejoin="round"/>
<path d="M18.6478 3.74908H5.35216C3.64169 3.74908 2.24997 5.16237 2.24997 6.89908V9.74908H2.99997C2.99997 8.99908 3.74997 8.24908 4.49997 8.24908H19.5C20.25 8.24908 21 8.99908 21 9.74908H21.75V6.89908C21.75 5.16237 20.3582 3.74908 18.6478 3.74908Z" fill="black"/>
<path d="M13.8749 11.999C14.4962 11.999 14.9999 11.4953 14.9999 10.874C14.9999 10.2527 14.4962 9.74902 13.8749 9.74902C13.2536 9.74902 12.7499 10.2527 12.7499 10.874C12.7499 11.4953 13.2536 11.999 13.8749 11.999Z" fill="black"/>
<path d="M17.6249 11.999C18.2463 11.999 18.7499 11.4953 18.7499 10.874C18.7499 10.2527 18.2463 9.74902 17.6249 9.74902C17.0036 9.74902 16.4999 10.2527 16.4999 10.874C16.4999 11.4953 17.0036 11.999 17.6249 11.999Z" fill="black"/>
<path d="M13.8749 15.7484C14.4962 15.7484 14.9999 15.2447 14.9999 14.6234C14.9999 14.002 14.4962 13.4984 13.8749 13.4984C13.2536 13.4984 12.7499 14.002 12.7499 14.6234C12.7499 15.2447 13.2536 15.7484 13.8749 15.7484Z" fill="black"/>
<path d="M17.6249 15.7484C18.2463 15.7484 18.7499 15.2447 18.7499 14.6234C18.7499 14.002 18.2463 13.4984 17.6249 13.4984C17.0036 13.4984 16.4999 14.002 16.4999 14.6234C16.4999 15.2447 17.0036 15.7484 17.6249 15.7484Z" fill="black"/>
<path d="M6.37495 15.7484C6.99627 15.7484 7.49995 15.2447 7.49995 14.6234C7.49995 14.002 6.99627 13.4984 6.37495 13.4984C5.75363 13.4984 5.24995 14.002 5.24995 14.6234C5.24995 15.2447 5.75363 15.7484 6.37495 15.7484Z" fill="black"/>
<path d="M10.1249 15.7484C10.7462 15.7484 11.2499 15.2447 11.2499 14.6234C11.2499 14.002 10.7462 13.4984 10.1249 13.4984C9.5036 13.4984 8.99992 14.002 8.99992 14.6234C8.99992 15.2447 9.5036 15.7484 10.1249 15.7484Z" fill="black"/>
<path d="M6.37495 19.4991C6.99627 19.4991 7.49995 18.9954 7.49995 18.3741C7.49995 17.7528 6.99627 17.2491 6.37495 17.2491C5.75363 17.2491 5.24995 17.7528 5.24995 18.3741C5.24995 18.9954 5.75363 19.4991 6.37495 19.4991Z" fill="black"/>
<path d="M10.1249 19.4991C10.7462 19.4991 11.2499 18.9954 11.2499 18.3741C11.2499 17.7528 10.7462 17.2491 10.1249 17.2491C9.5036 17.2491 8.99992 17.7528 8.99992 18.3741C8.99992 18.9954 9.5036 19.4991 10.1249 19.4991Z" fill="black"/>
<path d="M13.8749 19.4991C14.4962 19.4991 14.9999 18.9954 14.9999 18.3741C14.9999 17.7528 14.4962 17.2491 13.8749 17.2491C13.2536 17.2491 12.7499 17.7528 12.7499 18.3741C12.7499 18.9954 13.2536 19.4991 13.8749 19.4991Z" fill="black"/>
<path d="M5.99982 2.24896V3.74896" stroke="black" stroke-width="1.5" stroke-linecap="round" stroke-linejoin="round"/>
<path d="M17.9999 2.24896V3.74896" stroke="black" stroke-width="1.5" stroke-linecap="round" stroke-linejoin="round"/>
</g>
<defs>
<clipPath id="clip0_1037_10215">
<rect width="24" height="24" fill="white"/>
</clipPath>
</defs>
</svg>
