<svg width="24" height="24" viewBox="0 0 24 24" fill="none" xmlns="http://www.w3.org/2000/svg">
<g clip-path="url(#clip0_1037_10499)">
<path d="M15.5817 14.56C14.5949 13.6829 13.3206 13.1984 12.0004 13.1984C10.6802 13.1984 9.40593 13.6829 8.41918 14.56" stroke="black" stroke-width="1.5" stroke-linecap="round" stroke-linejoin="round"/>
<path d="M18.4434 11.6984C16.6958 10.0642 14.3926 9.15515 12 9.15515C9.6074 9.15515 7.30417 10.0642 5.55656 11.6984" stroke="black" stroke-width="1.5" stroke-linecap="round" stroke-linejoin="round"/>
<path d="M20.9867 8.53778C18.5133 6.33126 15.3145 5.11182 11.9999 5.11182C8.68524 5.11182 5.48646 6.33126 3.013 8.53778" stroke="black" stroke-width="1.5" stroke-linecap="round" stroke-linejoin="round"/>
<path d="M12 19.4994C11.7034 19.4994 11.4133 19.4115 11.1667 19.2467C10.92 19.0818 10.7277 18.8476 10.6142 18.5735C10.5007 18.2994 10.471 17.9978 10.5289 17.7068C10.5867 17.4158 10.7296 17.1486 10.9394 16.9388C11.1491 16.729 11.4164 16.5862 11.7074 16.5283C11.9984 16.4704 12.3 16.5001 12.5741 16.6136C12.8481 16.7272 13.0824 16.9194 13.2472 17.1661C13.4121 17.4128 13.5 17.7028 13.5 17.9995C13.5 18.3973 13.342 18.7788 13.0607 19.0601C12.7794 19.3414 12.3979 19.4994 12 19.4994Z" fill="black"/>
</g>
<defs>
<clipPath id="clip0_1037_10499">
<rect width="24" height="24" fill="white"/>
</clipPath>
</defs>
</svg>
