<svg width="24" height="24" viewBox="0 0 24 24" fill="none" xmlns="http://www.w3.org/2000/svg">
<g clip-path="url(#clip0_1037_10271)">
<path d="M18 11.2492H4.50002V6.37421C4.5015 5.87738 4.69952 5.40133 5.05083 5.05002C5.40214 4.69871 5.87819 4.50069 6.37502 4.49921H17.625C18.1218 4.50069 18.5979 4.69871 18.9492 5.05002C19.3005 5.40133 19.4985 5.87738 19.5 6.37421V11.2492H18Z" stroke="black" stroke-width="1.5" stroke-linecap="round" stroke-linejoin="round"/>
<path d="M2.24997 19.4992V14.2492C2.25232 13.4543 2.56915 12.6926 3.13125 12.1305C3.69335 11.5684 4.45505 11.2516 5.24997 11.2492H18.75C19.5449 11.2516 20.3066 11.5684 20.8687 12.1305C21.4308 12.6926 21.7476 13.4543 21.75 14.2492V19.4992" stroke="black" stroke-width="1.5" stroke-linecap="round" stroke-linejoin="round"/>
<path d="M2.24997 19.4992V19.1242C2.25084 18.8261 2.36964 18.5405 2.58043 18.3297C2.79123 18.1189 3.07687 18.0001 3.37497 17.9992H20.625C20.9231 18.0001 21.2087 18.1189 21.4195 18.3297C21.6303 18.5405 21.7491 18.8261 21.75 19.1242V19.4992" stroke="black" stroke-width="1.5" stroke-linecap="round" stroke-linejoin="round"/>
<path d="M5.24995 11.2495V10.4995C5.25106 10.102 5.40946 9.72114 5.69052 9.44008C5.97158 9.15902 6.35247 9.00062 6.74995 8.99951H10.4999C10.8974 9.00062 11.2783 9.15902 11.5594 9.44008C11.8404 9.72114 11.9988 10.102 11.9999 10.4995V11.2495" stroke="black" stroke-width="1.5" stroke-linecap="round" stroke-linejoin="round"/>
<path d="M12 11.2495V10.4995C12.0011 10.102 12.1595 9.72114 12.4405 9.44008C12.7216 9.15902 13.1025 9.00062 13.5 8.99951H17.25C17.6474 9.00062 18.0283 9.15902 18.3094 9.44008C18.5905 9.72114 18.7488 10.102 18.75 10.4995V11.2495" stroke="black" stroke-width="1.5" stroke-linecap="round" stroke-linejoin="round"/>
</g>
<defs>
<clipPath id="clip0_1037_10271">
<rect width="24" height="24" fill="white"/>
</clipPath>
</defs>
</svg>
