<svg width="24" height="24" viewBox="0 0 24 24" fill="none" xmlns="http://www.w3.org/2000/svg">
<g clip-path="url(#clip0_1037_10517)">
<path d="M10.2235 7.83695C10.2235 8.44632 10.2235 9.03695 10.4157 9.59007C8.39534 11.9619 3.06097 18.2291 2.56409 18.7073C2.46534 18.7959 2.38634 18.9043 2.33223 19.0254C2.27812 19.1465 2.25012 19.2777 2.25003 19.4104C2.25003 19.8088 2.49378 20.1932 2.70003 20.4088C3.00941 20.7323 4.33128 21.9557 4.57503 21.7213C5.2969 21.0182 5.44222 20.8307 5.73753 20.5401C6.18284 20.1041 5.69065 19.2135 5.84534 18.8526C6.00003 18.4916 6.16409 18.4213 6.43128 18.3651C6.69847 18.3088 7.1719 18.501 7.54222 18.5057C7.93128 18.5104 8.14222 18.3463 8.43284 18.0744C8.66722 17.8588 8.83597 17.6573 8.84065 17.3432C8.85003 16.9213 8.24065 16.3635 8.69534 15.9182C9.15003 15.4729 9.80628 16.2088 10.2891 16.1526C10.7719 16.0963 11.3578 15.426 11.4188 15.1401C11.4797 14.8541 10.8703 14.1182 10.9641 13.701C10.9969 13.5604 11.2828 13.2323 11.4985 13.1854C11.7141 13.1385 12.6703 13.5088 12.886 13.4619C13.1485 13.4057 13.4532 13.1291 13.7016 12.9744C14.4282 13.2885 15.0891 13.4151 15.9375 13.4151C19.1485 13.4151 21.75 10.9119 21.75 7.82757C21.75 4.7432 19.1485 2.25085 15.9375 2.25085C12.7266 2.25085 10.2235 4.75257 10.2235 7.83695ZM18.75 6.75085C18.75 7.04752 18.6621 7.33753 18.4972 7.58421C18.3324 7.83088 18.0981 8.02314 17.824 8.13667C17.55 8.2502 17.2484 8.27991 16.9574 8.22203C16.6664 8.16415 16.3991 8.02129 16.1894 7.81151C15.9796 7.60173 15.8367 7.33446 15.7788 7.04349C15.721 6.75252 15.7507 6.45092 15.8642 6.17683C15.9777 5.90274 16.17 5.66847 16.4167 5.50365C16.6633 5.33883 16.9534 5.25085 17.25 5.25085C17.6478 5.25085 18.0294 5.40889 18.3107 5.69019C18.592 5.9715 18.75 6.35303 18.75 6.75085Z" stroke="black" stroke-width="1.5" stroke-linejoin="round"/>
</g>
<defs>
<clipPath id="clip0_1037_10517">
<rect width="24" height="24" fill="white"/>
</clipPath>
</defs>
</svg>
