<svg width="24" height="24" viewBox="0 0 24 24" fill="none" xmlns="http://www.w3.org/2000/svg">
<g clip-path="url(#clip0_1037_10465)">
<path d="M15.7499 8.99994H17.6249C18.1222 8.99994 18.5991 9.19748 18.9508 9.54911C19.3024 9.90074 19.4999 10.3777 19.4999 10.8749V19.8749C19.4999 20.3722 19.3024 20.8491 18.9508 21.2008C18.5991 21.5524 18.1222 21.7499 17.6249 21.7499H6.37495C5.87766 21.7499 5.40075 21.5524 5.04912 21.2008C4.69749 20.8491 4.49995 20.3722 4.49995 19.8749V10.8749C4.49995 10.3777 4.69749 9.90074 5.04912 9.54911C5.40075 9.19748 5.87766 8.99994 6.37495 8.99994H8.24994" stroke="black" stroke-width="1.5" stroke-linecap="round" stroke-linejoin="round"/>
<path d="M15.7499 5.99847L11.9999 2.24847L8.24992 5.99847" stroke="black" stroke-width="1.5" stroke-linecap="round" stroke-linejoin="round"/>
<path d="M11.9998 15.0453V2.24847" stroke="black" stroke-width="1.5" stroke-linecap="round" stroke-linejoin="round"/>
</g>
<defs>
<clipPath id="clip0_1037_10465">
<rect width="24" height="24" fill="white"/>
</clipPath>
</defs>
</svg>
