<svg width="24" height="24" viewBox="0 0 24 24" fill="none" xmlns="http://www.w3.org/2000/svg">
<g clip-path="url(#clip0_1037_10441)">
<path d="M6.74991 4.87421C6.74991 3.83867 5.91044 2.99921 4.87491 2.99921C3.83937 2.99921 2.99991 3.83867 2.99991 4.87421C2.99991 5.90974 3.83937 6.7492 4.87491 6.7492C5.91044 6.7492 6.74991 5.90974 6.74991 4.87421Z" stroke="black" stroke-width="1.5" stroke-miterlimit="10"/>
<path d="M13.8751 4.87421C13.8751 3.83867 13.0356 2.99921 12.0001 2.99921C10.9645 2.99921 10.1251 3.83867 10.1251 4.87421C10.1251 5.90974 10.9645 6.7492 12.0001 6.7492C13.0356 6.7492 13.8751 5.90974 13.8751 4.87421Z" stroke="black" stroke-width="1.5" stroke-miterlimit="10"/>
<path d="M20.9999 4.87421C20.9999 3.83867 20.1605 2.99921 19.1249 2.99921C18.0894 2.99921 17.2499 3.83867 17.2499 4.87421C17.2499 5.90974 18.0894 6.7492 19.1249 6.7492C20.1605 6.7492 20.9999 5.90974 20.9999 4.87421Z" stroke="black" stroke-width="1.5" stroke-miterlimit="10"/>
<path d="M6.74991 11.9993C6.74991 10.9637 5.91044 10.1243 4.87491 10.1243C3.83937 10.1243 2.99991 10.9637 2.99991 11.9993C2.99991 13.0348 3.83937 13.8743 4.87491 13.8743C5.91044 13.8743 6.74991 13.0348 6.74991 11.9993Z" stroke="black" stroke-width="1.5" stroke-miterlimit="10"/>
<path d="M13.8751 11.9993C13.8751 10.9637 13.0356 10.1243 12.0001 10.1243C10.9645 10.1243 10.1251 10.9637 10.1251 11.9993C10.1251 13.0348 10.9645 13.8743 12.0001 13.8743C13.0356 13.8743 13.8751 13.0348 13.8751 11.9993Z" stroke="black" stroke-width="1.5" stroke-miterlimit="10"/>
<path d="M20.9999 11.9993C20.9999 10.9637 20.1605 10.1243 19.1249 10.1243C18.0894 10.1243 17.2499 10.9637 17.2499 11.9993C17.2499 13.0348 18.0894 13.8743 19.1249 13.8743C20.1605 13.8743 20.9999 13.0348 20.9999 11.9993Z" stroke="black" stroke-width="1.5" stroke-miterlimit="10"/>
<path d="M6.74991 19.1252C6.74991 18.0897 5.91044 17.2502 4.87491 17.2502C3.83937 17.2502 2.99991 18.0897 2.99991 19.1252C2.99991 20.1608 3.83937 21.0002 4.87491 21.0002C5.91044 21.0002 6.74991 20.1608 6.74991 19.1252Z" stroke="black" stroke-width="1.5" stroke-miterlimit="10"/>
<path d="M13.8751 19.1252C13.8751 18.0897 13.0356 17.2502 12.0001 17.2502C10.9645 17.2502 10.1251 18.0897 10.1251 19.1252C10.1251 20.1608 10.9645 21.0002 12.0001 21.0002C13.0356 21.0002 13.8751 20.1608 13.8751 19.1252Z" stroke="black" stroke-width="1.5" stroke-miterlimit="10"/>
<path d="M20.9999 19.1252C20.9999 18.0897 20.1605 17.2502 19.1249 17.2502C18.0894 17.2502 17.2499 18.0897 17.2499 19.1252C17.2499 20.1608 18.0894 21.0002 19.1249 21.0002C20.1605 21.0002 20.9999 20.1608 20.9999 19.1252Z" stroke="black" stroke-width="1.5" stroke-miterlimit="10"/>
</g>
<defs>
<clipPath id="clip0_1037_10441">
<rect width="24" height="24" fill="white"/>
</clipPath>
</defs>
</svg>
