<svg width="24" height="24" viewBox="0 0 24 24" fill="none" xmlns="http://www.w3.org/2000/svg">
<g clip-path="url(#clip0_1038_12151)">
<path d="M12.0001 1.4986C7.85962 1.4986 4.50009 4.5225 4.50009 8.24859C4.50009 14.2486 12.0001 22.4986 12.0001 22.4986C12.0001 22.4986 19.5001 14.2486 19.5001 8.24859C19.5001 4.5225 16.1406 1.4986 12.0001 1.4986ZM12.0001 11.9986C11.4067 11.9986 10.8267 11.8226 10.3334 11.493C9.84003 11.1634 9.45551 10.6948 9.22845 10.1466C9.00139 9.59846 8.94198 8.99526 9.05773 8.41332C9.17349 7.83138 9.45921 7.29683 9.87877 6.87727C10.2983 6.45772 10.8329 6.17199 11.4148 6.05624C11.9968 5.94048 12.6 5.99989 13.1481 6.22695C13.6963 6.45402 14.1649 6.83854 14.4945 7.33188C14.8241 7.82523 15.0001 8.40525 15.0001 8.99859C14.9992 9.79397 14.6829 10.5565 14.1204 11.119C13.558 11.6814 12.7955 11.9977 12.0001 11.9986Z" fill="black"/>
</g>
<defs>
<clipPath id="clip0_1038_12151">
<rect width="24" height="24" fill="white"/>
</clipPath>
</defs>
</svg>
