<svg width="24" height="24" viewBox="0 0 24 24" fill="none" xmlns="http://www.w3.org/2000/svg">
<g clip-path="url(#clip0_1037_10207)">
<path d="M12 2.24963C8.27346 2.24963 5.25003 5.12729 5.25003 8.6715C5.25003 12.7496 9.75002 19.2123 11.4024 21.4445C11.471 21.5387 11.5609 21.6154 11.6647 21.6682C11.7686 21.7211 11.8835 21.7487 12 21.7487C12.1166 21.7487 12.2315 21.7211 12.3353 21.6682C12.4392 21.6154 12.5291 21.5387 12.5977 21.4445C14.25 19.2132 18.75 12.7529 18.75 8.6715C18.75 5.12729 15.7266 2.24963 12 2.24963Z" stroke="black" stroke-width="1.5" stroke-linecap="round" stroke-linejoin="round"/>
<path d="M12 11.25C13.2426 11.25 14.25 10.2426 14.25 9C14.25 7.75736 13.2426 6.75 12 6.75C10.7574 6.75 9.74999 7.75736 9.74999 9C9.74999 10.2426 10.7574 11.25 12 11.25Z" stroke="black" stroke-width="1.5" stroke-linecap="round" stroke-linejoin="round"/>
</g>
<defs>
<clipPath id="clip0_1037_10207">
<rect width="24" height="24" fill="white"/>
</clipPath>
</defs>
</svg>
