<svg width="24" height="24" viewBox="0 0 24 24" fill="none" xmlns="http://www.w3.org/2000/svg">
<g clip-path="url(#clip0_1037_10739)">
<path d="M3.75003 9.93707V20.9996C3.75003 21.1985 3.82905 21.3892 3.9697 21.5299C4.11035 21.6706 4.30112 21.7496 4.50003 21.7496H9.00003V15.3746C9.00003 15.0762 9.11856 14.7901 9.32953 14.5791C9.54051 14.3681 9.82666 14.2496 10.125 14.2496H13.875C14.1734 14.2496 14.4595 14.3681 14.6705 14.5791C14.8815 14.7901 15 15.0762 15 15.3746V21.7496H19.5C19.6989 21.7496 19.8897 21.6706 20.0304 21.5299C20.171 21.3892 20.25 21.1985 20.25 20.9996V9.93707" stroke="black" stroke-width="1.5" stroke-linecap="round" stroke-linejoin="round"/>
<path d="M22.5 12.0008L12.5105 2.43833C12.2761 2.19083 11.7281 2.18802 11.4895 2.43833L1.5 12.0008" stroke="black" stroke-width="1.5" stroke-linecap="round" stroke-linejoin="round"/>
<path d="M18.7499 8.39038V2.99976H16.4999V6.23413" stroke="black" stroke-width="1.5" stroke-linecap="round" stroke-linejoin="round"/>
</g>
<defs>
<clipPath id="clip0_1037_10739">
<rect width="24" height="24" fill="white"/>
</clipPath>
</defs>
</svg>
