<svg width="24" height="24" viewBox="0 0 24 24" fill="none" xmlns="http://www.w3.org/2000/svg">
<path d="M11.7639 0.679348C11.8417 0.455458 12.1583 0.455457 12.2361 0.679347L14.7643 7.9524C14.7986 8.05116 14.8908 8.11813 14.9953 8.12026L22.6936 8.27714C22.9306 8.28197 23.0284 8.58311 22.8396 8.72631L16.7037 13.3782C16.6204 13.4414 16.5852 13.5497 16.6154 13.6498L18.8452 21.0198C18.9138 21.2467 18.6576 21.4328 18.4631 21.2974L12.1428 16.8994C12.057 16.8396 11.943 16.8396 11.8572 16.8994L5.53693 21.2974C5.34237 21.4328 5.08621 21.2467 5.15485 21.0198L7.38455 13.6498C7.41483 13.5497 7.37962 13.4414 7.2963 13.3782L1.16045 8.72631C0.971565 8.58311 1.06941 8.28197 1.30639 8.27714L9.0047 8.12026C9.10924 8.11813 9.20142 8.05116 9.23575 7.9524L11.7639 0.679348Z" fill="#C4C4C4"/>
<path d="M11.7639 0.679348C11.8417 0.455458 12.1583 0.455457 12.2361 0.679347L14.7643 7.9524C14.7986 8.05116 14.8908 8.11813 14.9953 8.12026L22.6936 8.27714C22.9306 8.28197 23.0284 8.58311 22.8396 8.72631L16.7037 13.3782C16.6204 13.4414 16.5852 13.5497 16.6154 13.6498L18.8452 21.0198C18.9138 21.2467 18.6576 21.4328 18.4631 21.2974L12.1428 16.8994C12.057 16.8396 11.943 16.8396 11.8572 16.8994L5.53693 21.2974C5.34237 21.4328 5.08621 21.2467 5.15485 21.0198L7.38455 13.6498C7.41483 13.5497 7.37962 13.4414 7.2963 13.3782L1.16045 8.72631C0.971565 8.58311 1.06941 8.28197 1.30639 8.27714L9.0047 8.12026C9.10924 8.11813 9.20142 8.05116 9.23575 7.9524L11.7639 0.679348Z" fill="#E5C935"/>
<path fill-rule="evenodd" clip-rule="evenodd" d="M12 16.8545V0.511353C12.0986 0.511352 12.1972 0.567325 12.2361 0.679269L14.7643 7.95232C14.7986 8.05109 14.8908 8.11805 14.9953 8.12019L22.6936 8.27706C22.9306 8.28189 23.0284 8.58303 22.8396 8.72623L16.7037 13.3781C16.6204 13.4413 16.5852 13.5496 16.6154 13.6497L18.8452 21.0197C18.9138 21.2466 18.6576 21.4327 18.4631 21.2973L12.1428 16.8993C12.0999 16.8694 12.0499 16.8545 12 16.8545Z" fill="#C4C4C4"/>
</svg>
