<svg width="22" height="22" viewBox="0 0 22 22" fill="none" xmlns="http://www.w3.org/2000/svg">
<path d="M10.7639 0.679348C10.8417 0.455458 11.1583 0.455457 11.2361 0.679347L13.7643 7.9524C13.7986 8.05116 13.8908 8.11813 13.9953 8.12026L21.6936 8.27714C21.9306 8.28197 22.0284 8.58311 21.8396 8.72631L15.7037 13.3782C15.6204 13.4414 15.5852 13.5497 15.6154 13.6498L17.8452 21.0198C17.9138 21.2467 17.6576 21.4328 17.4631 21.2974L11.1428 16.8994C11.057 16.8396 10.943 16.8396 10.8572 16.8994L4.53693 21.2974C4.34237 21.4328 4.08621 21.2467 4.15485 21.0198L6.38455 13.6498C6.41483 13.5497 6.37962 13.4414 6.2963 13.3782L0.160449 8.72631C-0.0284346 8.58311 0.0694098 8.28197 0.306391 8.27714L8.0047 8.12026C8.10924 8.11813 8.20142 8.05116 8.23575 7.9524L10.7639 0.679348Z" fill="#E5C935"/>
</svg>
