<svg width="24" height="24" viewBox="0 0 24 24" fill="none" xmlns="http://www.w3.org/2000/svg">
<g clip-path="url(#clip0_1037_10597)">
<g clip-path="url(#clip1_1037_10597)">
<path d="M5.57411 7.28892V5.98403C5.57641 5.81275 5.51778 5.64588 5.40796 5.51114C5.04836 5.11725 4.84556 4.61328 4.83565 4.08892C4.83565 2.31114 7.31688 0.888916 10.3741 0.888916C13.4313 0.888916 15.9126 2.31114 15.9126 4.08892C15.9027 4.61328 15.6999 5.11725 15.3403 5.51114C15.2304 5.64588 15.1718 5.81275 15.1741 5.98403V7.28892" stroke="black" stroke-width="1.25" stroke-linecap="round" stroke-linejoin="round"/>
<path d="M17.0204 7.28892V5.98403C17.0181 5.81275 17.0768 5.64588 17.1866 5.51114C17.5462 5.11725 17.749 4.61328 17.7589 4.08892C17.7589 2.31114 15.2777 0.888916 12.2204 0.888916H10.3743" stroke="black" stroke-width="1.25" stroke-linecap="round" stroke-linejoin="round"/>
<path d="M1.88188 19.7334V9.7778C1.88188 9.21201 2.11529 8.66939 2.53075 8.26931C2.94622 7.86923 3.50971 7.64447 4.09727 7.64447H18.8665C19.4541 7.64447 20.0175 7.86923 20.433 8.26931C20.8485 8.66939 21.0819 9.21201 21.0819 9.7778V19.7334" stroke="black" stroke-width="1.25" stroke-linejoin="round"/>
<path d="M1.51266 19.7334H21.4511C21.647 19.7334 21.8348 19.8083 21.9733 19.9417C22.1118 20.075 22.1896 20.2559 22.1896 20.4445V21.5112H0.7742V20.4445C0.7742 20.2559 0.852002 20.075 0.990491 19.9417C1.12898 19.8083 1.31681 19.7334 1.51266 19.7334V19.7334Z" stroke="black" stroke-width="1.25" stroke-linecap="round" stroke-linejoin="round"/>
<path d="M3.72795 21.5112H8.89718V22.2223C8.89718 22.4109 8.81938 22.5918 8.68089 22.7251C8.5424 22.8585 8.35457 22.9334 8.15872 22.9334H4.46641C4.27056 22.9334 4.08273 22.8585 3.94424 22.7251C3.80575 22.5918 3.72795 22.4109 3.72795 22.2223V21.5112Z" stroke="black" stroke-width="1.25" stroke-linecap="round" stroke-linejoin="round"/>
<path d="M18.4973 22.9333H14.805C14.6091 22.9333 14.4213 22.8584 14.2828 22.7251C14.1443 22.5917 14.0665 22.4108 14.0665 22.2222V21.5111H19.2358V22.2222C19.2358 22.4108 19.158 22.5917 19.0195 22.7251C18.881 22.8584 18.6932 22.9333 18.4973 22.9333Z" stroke="black" stroke-width="1.25" stroke-linecap="round" stroke-linejoin="round"/>
<path d="M17.3896 17.6001C18.2053 17.6001 18.8666 16.9633 18.8666 16.1778C18.8666 15.3924 18.2053 14.7556 17.3896 14.7556C16.5739 14.7556 15.9127 15.3924 15.9127 16.1778C15.9127 16.9633 16.5739 17.6001 17.3896 17.6001Z" stroke="black" stroke-width="1.25" stroke-linecap="round" stroke-linejoin="round"/>
<path d="M22.928 9.4223H21.0818V10.489H22.928V9.4223Z" stroke="black" stroke-width="1.25" stroke-linecap="round" stroke-linejoin="round"/>
</g>
</g>
<defs>
<clipPath id="clip0_1037_10597">
<rect width="24" height="24" fill="white"/>
</clipPath>
<clipPath id="clip1_1037_10597">
<rect width="24" height="24" fill="white"/>
</clipPath>
</defs>
</svg>
