<svg width="24" height="24" viewBox="0 0 24 24" fill="none" xmlns="http://www.w3.org/2000/svg">
<g clip-path="url(#clip0_1037_10199)">
<path d="M10.3636 3.00067C8.90719 3.00067 7.48352 3.43254 6.27258 4.24166C5.06165 5.05078 4.11784 6.20082 3.5605 7.54634C3.00317 8.89186 2.85735 10.3724 3.14147 11.8008C3.4256 13.2292 4.12691 14.5413 5.15673 15.5711C6.18655 16.6009 7.49861 17.3022 8.92701 17.5864C10.3554 17.8705 11.836 17.7247 13.1815 17.1673C14.527 16.61 15.6771 15.6662 16.4862 14.4553C17.2953 13.2443 17.7272 11.8206 17.7272 10.3643C17.727 8.41135 16.9512 6.53847 15.5703 5.15755C14.1894 3.77664 12.3165 3.0008 10.3636 3.00067V3.00067Z" stroke="black" stroke-width="1.5" stroke-miterlimit="10"/>
<path d="M15.8572 15.8574L20.9999 21" stroke="black" stroke-width="1.5" stroke-miterlimit="10" stroke-linecap="round"/>
</g>
<defs>
<clipPath id="clip0_1037_10199">
<rect width="24" height="24" fill="white"/>
</clipPath>
</defs>
</svg>
