<svg width="24" height="24" viewBox="0 0 24 24" fill="none" xmlns="http://www.w3.org/2000/svg">
<g clip-path="url(#clip0_1037_10390)">
<path d="M9.5624 2.24915H3.1874C2.66963 2.24915 2.2499 2.66888 2.2499 3.18665V9.56164C2.2499 10.0794 2.66963 10.4991 3.1874 10.4991H9.5624C10.0802 10.4991 10.4999 10.0794 10.4999 9.56164V3.18665C10.4999 2.66888 10.0802 2.24915 9.5624 2.24915Z" stroke="black" stroke-width="1.5" stroke-linecap="round" stroke-linejoin="round"/>
<path d="M20.8124 2.24915H14.4374C13.9196 2.24915 13.4999 2.66888 13.4999 3.18665V9.56164C13.4999 10.0794 13.9196 10.4991 14.4374 10.4991H20.8124C21.3301 10.4991 21.7499 10.0794 21.7499 9.56164V3.18665C21.7499 2.66888 21.3301 2.24915 20.8124 2.24915Z" stroke="black" stroke-width="1.5" stroke-linecap="round" stroke-linejoin="round"/>
<path d="M9.5624 13.4995H3.1874C2.66963 13.4995 2.2499 13.9192 2.2499 14.437V20.812C2.2499 21.3298 2.66963 21.7495 3.1874 21.7495H9.5624C10.0802 21.7495 10.4999 21.3298 10.4999 20.812V14.437C10.4999 13.9192 10.0802 13.4995 9.5624 13.4995Z" stroke="black" stroke-width="1.5" stroke-linecap="round" stroke-linejoin="round"/>
<path d="M20.8124 13.4995H14.4374C13.9196 13.4995 13.4999 13.9192 13.4999 14.437V20.812C13.4999 21.3298 13.9196 21.7495 14.4374 21.7495H20.8124C21.3301 21.7495 21.7499 21.3298 21.7499 20.812V14.437C21.7499 13.9192 21.3301 13.4995 20.8124 13.4995Z" stroke="black" stroke-width="1.5" stroke-linecap="round" stroke-linejoin="round"/>
</g>
<defs>
<clipPath id="clip0_1037_10390">
<rect width="24" height="24" fill="white"/>
</clipPath>
</defs>
</svg>
