<svg width="24" height="24" viewBox="0 0 24 24" fill="none" xmlns="http://www.w3.org/2000/svg">
<g clip-path="url(#clip0_1037_10823)">
<path d="M12.0002 2.24915C6.61563 2.24915 2.25017 6.61461 2.25017 11.9991C2.25017 17.3837 6.61563 21.7491 12.0002 21.7491C17.3847 21.7491 21.7502 17.3837 21.7502 11.9991C21.7502 6.61461 17.3847 2.24915 12.0002 2.24915Z" stroke="black" stroke-width="1.5" stroke-miterlimit="10"/>
<path d="M12.0001 2.24915C9.27803 2.24915 6.71866 6.61461 6.71866 11.9991C6.71866 17.3837 9.27803 21.7491 12.0001 21.7491C14.7221 21.7491 17.2815 17.3837 17.2815 11.9991C17.2815 6.61461 14.7221 2.24915 12.0001 2.24915Z" stroke="black" stroke-width="1.5" stroke-miterlimit="10"/>
<path d="M5.49994 5.49921C7.29244 6.77186 9.549 7.53077 12.0001 7.53077C14.4512 7.53077 16.7077 6.77186 18.5002 5.49921" stroke="black" stroke-width="1.5" stroke-linecap="round" stroke-linejoin="round"/>
<path d="M18.5002 18.5007C16.7077 17.228 14.4512 16.4691 12.0001 16.4691C9.549 16.4691 7.29244 17.228 5.49994 18.5007" stroke="black" stroke-width="1.5" stroke-linecap="round" stroke-linejoin="round"/>
<path d="M12.0001 2.24915V21.7491" stroke="black" stroke-width="1.5" stroke-miterlimit="10"/>
<path d="M21.7502 11.9989H2.25017" stroke="black" stroke-width="1.5" stroke-miterlimit="10"/>
</g>
<defs>
<clipPath id="clip0_1037_10823">
<rect width="24" height="24" fill="white"/>
</clipPath>
</defs>
</svg>
