<svg width="24" height="24" viewBox="0 0 24 24" fill="none" xmlns="http://www.w3.org/2000/svg">
<g clip-path="url(#clip0_1037_10527)">
<path d="M20.25 17.25H3.75C2.925 17.25 2.25 16.575 2.25 15.75V12.75C2.25 11.1 3.6 9.75 5.25 9.75H18.75C20.4 9.75 21.75 11.1 21.75 12.75V15.75C21.75 16.575 21.075 17.25 20.25 17.25Z" stroke="black" stroke-width="1.5" stroke-miterlimit="10" stroke-linecap="round" stroke-linejoin="round"/>
<path d="M19.5 9.75H4.5L6 6.3C6.45 5.25 7.5 4.5 8.7 4.5H15.225C16.425 4.5 17.475 5.25 18 6.3L19.5 9.75Z" stroke="black" stroke-width="1.5" stroke-miterlimit="10" stroke-linecap="round" stroke-linejoin="round"/>
<path d="M7.5 17.25H3V18.75C3 19.575 3.675 20.25 4.5 20.25H6C6.825 20.25 7.5 19.575 7.5 18.75V17.25Z" stroke="black" stroke-width="1.5" stroke-miterlimit="10" stroke-linecap="round" stroke-linejoin="round"/>
<path d="M21 17.25H16.5V18.75C16.5 19.575 17.175 20.25 18 20.25H19.5C20.325 20.25 21 19.575 21 18.75V17.25Z" stroke="black" stroke-width="1.5" stroke-miterlimit="10" stroke-linecap="round" stroke-linejoin="round"/>
<path d="M2.25 9H4.8" stroke="black" stroke-width="1.5" stroke-miterlimit="10" stroke-linecap="round" stroke-linejoin="round"/>
<path d="M19.5 9H21.75" stroke="black" stroke-width="1.5" stroke-miterlimit="10" stroke-linecap="round" stroke-linejoin="round"/>
<path d="M15.75 17.25H8.25L9.3 15.075C9.525 14.55 10.05 14.25 10.65 14.25H13.275C13.875 14.25 14.4 14.55 14.625 15.075L15.75 17.25Z" stroke="black" stroke-width="1.5" stroke-miterlimit="10" stroke-linecap="round" stroke-linejoin="round"/>
<path d="M4.5 13.5H6.75" stroke="black" stroke-width="1.5" stroke-miterlimit="10" stroke-linecap="round" stroke-linejoin="round"/>
<path d="M17.25 13.5H19.5" stroke="black" stroke-width="1.5" stroke-miterlimit="10" stroke-linecap="round" stroke-linejoin="round"/>
</g>
<defs>
<clipPath id="clip0_1037_10527">
<rect width="24" height="24" fill="white"/>
</clipPath>
</defs>
</svg>
