<svg width="24" height="24" viewBox="0 0 24 24" fill="none" xmlns="http://www.w3.org/2000/svg">
<g clip-path="url(#clip0_1037_10679)">
<path d="M11.9999 1.5V22.5" stroke="black" stroke-width="1.5" stroke-linecap="round" stroke-linejoin="round"/>
<path d="M14.7055 3.74725C13.889 4.23941 12.9533 4.49878 11.9999 4.49725C11.0465 4.49878 10.1109 4.23941 9.2943 3.74725" stroke="black" stroke-width="1.5" stroke-linecap="round" stroke-linejoin="round"/>
<path d="M9.2943 20.2504C10.1115 19.7596 11.0467 19.5004 11.9999 19.5004C12.9531 19.5004 13.8884 19.7596 14.7055 20.2504" stroke="black" stroke-width="1.5" stroke-linecap="round" stroke-linejoin="round"/>
<path d="M21.0932 6.75037L2.90663 17.2504" stroke="black" stroke-width="1.5" stroke-linecap="round" stroke-linejoin="round"/>
<path d="M20.4969 10.2182C19.6632 9.75581 18.9709 9.07529 18.4944 8.24954C18.0178 7.42379 17.775 6.48394 17.7918 5.5307" stroke="black" stroke-width="1.5" stroke-linecap="round" stroke-linejoin="round"/>
<path d="M3.50288 13.7803C4.33664 14.2427 5.02888 14.9232 5.50542 15.749C5.98196 16.5747 6.22484 17.5146 6.20804 18.4678" stroke="black" stroke-width="1.5" stroke-linecap="round" stroke-linejoin="round"/>
<path d="M2.90663 6.75037L21.0932 17.2504" stroke="black" stroke-width="1.5" stroke-linecap="round" stroke-linejoin="round"/>
<path d="M3.50288 10.2182C4.33664 9.75581 5.02888 9.07529 5.50542 8.24954C5.98196 7.42379 6.22484 6.48394 6.20804 5.5307" stroke="black" stroke-width="1.5" stroke-linecap="round" stroke-linejoin="round"/>
<path d="M20.4969 13.7803C19.6632 14.2427 18.9709 14.9232 18.4944 15.749C18.0178 16.5747 17.775 17.5146 17.7918 18.4678" stroke="black" stroke-width="1.5" stroke-linecap="round" stroke-linejoin="round"/>
</g>
<defs>
<clipPath id="clip0_1037_10679">
<rect width="24" height="24" fill="white"/>
</clipPath>
</defs>
</svg>
