<svg width="24" height="24" viewBox="0 0 24 24" fill="none" xmlns="http://www.w3.org/2000/svg">
<g clip-path="url(#clip0_1037_10637)">
<g clip-path="url(#clip1_1037_10637)">
<path d="M21 19.5H3C2.175 19.5 1.5 18.825 1.5 18V4.5C1.5 3.675 2.175 3 3 3H21C21.825 3 22.5 3.675 22.5 4.5V18C22.5 18.825 21.825 19.5 21 19.5Z" stroke="black" stroke-width="1.5" stroke-miterlimit="10" stroke-linecap="round" stroke-linejoin="round"/>
<path d="M18.75 16.5H5.25C4.8 16.5 4.5 16.2 4.5 15.75V6.75C4.5 6.3 4.8 6 5.25 6H18.75C19.2 6 19.5 6.3 19.5 6.75V15.75C19.5 16.2 19.2 16.5 18.75 16.5Z" stroke="black" stroke-width="1.5" stroke-miterlimit="10" stroke-linecap="round" stroke-linejoin="round"/>
<path d="M14.25 14.25C15.9069 14.25 17.25 12.9069 17.25 11.25C17.25 9.59315 15.9069 8.25 14.25 8.25C12.5931 8.25 11.25 9.59315 11.25 11.25C11.25 12.9069 12.5931 14.25 14.25 14.25Z" stroke="black" stroke-width="1.5" stroke-miterlimit="10" stroke-linecap="round" stroke-linejoin="round"/>
<path d="M12.75 11.25H9.75" stroke="black" stroke-width="1.5" stroke-miterlimit="10" stroke-linecap="round" stroke-linejoin="round"/>
<path d="M3.75 8.25H5.25" stroke="black" stroke-width="1.5" stroke-miterlimit="10" stroke-linecap="round" stroke-linejoin="round"/>
<path d="M3.75 14.25H5.25" stroke="black" stroke-width="1.5" stroke-miterlimit="10" stroke-linecap="round" stroke-linejoin="round"/>
<path d="M6 19.5H3V21.75H5.25L6 19.5Z" stroke="black" stroke-width="1.5" stroke-miterlimit="10" stroke-linecap="round" stroke-linejoin="round"/>
<path d="M18 19.5H21V21.75H18.75L18 19.5Z" stroke="black" stroke-width="1.5" stroke-miterlimit="10" stroke-linecap="round" stroke-linejoin="round"/>
</g>
</g>
<defs>
<clipPath id="clip0_1037_10637">
<rect width="24" height="24" fill="white"/>
</clipPath>
<clipPath id="clip1_1037_10637">
<rect width="24" height="24" fill="white"/>
</clipPath>
</defs>
</svg>
